<?xml version="1.0" encoding="utf-8"?>
<!-- Generator: Adobe Illustrator 23.0.1, SVG Export Plug-In . SVG Version: 6.00 Build 0)  -->
<svg version="1.1" id="Layer_1" xmlns="http://www.w3.org/2000/svg" xmlns:xlink="http://www.w3.org/1999/xlink" x="0px" y="0px"
	 viewBox="0 0 300 300" style="enable-background:new 0 0 300 300;" xml:space="preserve">
<style type="text/css">
	.st0{fill:#161615;}
</style>
<g>
	<path class="st0" d="M78.25,267.94c-8.95-9.18-13.43-22.26-13.43-39.23V17.02l55.1-5.93v215.52c0,7.67,3.14,11.51,9.42,11.51
		c3.25,0,6.28-0.58,9.07-1.74l10.81,39.06c-10,4.18-21.16,6.28-33.48,6.28C99.69,281.72,87.19,277.12,78.25,267.94z"/>
	<path class="st0" d="M225.76,227.84c6.15,6.16,9.24,13.55,9.24,22.15c0,8.84-3.08,16.34-9.24,22.49
		c-6.16,6.16-13.55,9.24-22.15,9.24c-8.84,0-16.34-3.08-22.49-9.24c-6.16-6.16-9.24-13.65-9.24-22.49c0-8.6,3.08-15.98,9.24-22.15
		c6.16-6.16,13.65-9.24,22.49-9.24C212.21,218.59,219.6,221.68,225.76,227.84z"/>
</g>
</svg>
